<svg xmlns="http://www.w3.org/2000/svg" xmlns:xlink="http://www.w3.org/1999/xlink" width="400" height="200"><polygon points="0,200 0,100 1,101 2,102 3,103 4,102 5,101 6,100 7,99 8,100 9,99 10,98 11,97 12,96 13,97 14,98 15,97 16,96 17,97 18,96 19,95 20,94 21,93 22,92 23,91 24,92 25,93 26,92 27,93 28,94 29,95 30,96 31,95 32,94 33,93 34,94 35,95 36,96 37,95 38,94 39,95 40,94 41,93 42,92 43,91 44,92 45,91 46,92 47,91 48,90 49,89 50,88 51,87 52,86 53,87 54,86 55,85 56,86 57,87 58,86 59,85 60,86 61,85 62,86 63,85 64,86 65,87 66,86 67,87 68,88 69,87 70,88 71,89 72,88 73,87 74,86 75,87 76,86 77,87 78,86 79,85 80,84 81,85 82,84 83,83 84,82 85,81 86,80 87,79 88,80 89,81 90,82 91,81 92,82 93,83 94,82 95,81 96,80 97,79 98,80 99,79 100,78 101,77 102,76 103,77 104,76 105,75 106,76 107,75 108,76 109,75 110,76 111,75 112,74 113,75 114,74 115,75 116,74 117,73 118,72 119,71 120,70 121,69 122,68 123,69 124,68 125,69 126,68 127,67 128,68 129,67 130,66 131,67 132,66 133,67 134,66 135,65 136,64 137,63 138,62 139,63 140,64 141,63 142,62 143,61 144,62 145,61 146,60 147,59 148,58 149,59 150,60 151,61 152,62 153,61 154,60 155,59 156,60 157,59 158,58 159,59 160,60 161,59 162,60 163,59 164,60 165,59 166,60 167,59 168,58 169,59 170,60 171,59 172,60 173,59 174,60 175,61 176,62 177,61 178,62 179,63 180,62 181,61 182,60 183,59 184,60 185,61 186,60 187,61 188,60 189,59 190,60 191,59 192,60 193,59 194,60 195,61 196,62 197,63 198,64 199,65 200,64 201,63 202,62 203,63 204,64 205,63 206,62 207,61 208,60 209,59 210,60 211,61 212,62 213,63 214,64 215,65 216,64 217,63 218,64 219,65 220,66 221,65 222,66 223,67 224,68 225,67 226,68 227,69 228,70 229,69 230,68 231,67 232,68 233,67 234,68 235,69 236,68 237,67 238,66 239,67 240,66 241,67 242,66 243,67 244,66 245,65 246,64 247,63 248,62 249,61 250,62 251,63 252,64 253,65 254,64 255,63 256,64 257,63 258,64 259,65 260,66 261,67 262,66 263,65 264,64 265,65 266,66 267,67 268,68 269,69 270,68 271,69 272,70 273,71 274,70 275,71 276,70 277,69 278,68 279,67 280,66 281,65 282,64 283,65 284,66 285,65 286,66 287,65 288,64 289,65 290,64 291,65 292,66 293,67 294,68 295,67 296,68 297,69 298,70 299,71 300,70 301,69 302,68 303,67 304,68 305,67 306,68 307,69 308,70 309,69 310,70 311,71 312,70 313,71 314,72 315,73 316,74 317,75 318,76 319,77 320,78 321,77 322,76 323,77 324,76 325,77 326,76 327,77 328,76 329,77 330,78 331,77 332,78 333,79 334,80 335,79 336,80 337,81 338,82 339,83 340,84 341,83 342,84 343,85 344,86 345,85 346,86 347,85 348,86 349,85 350,84 351,83 352,82 353,83 354,84 355,83 356,84 357,83 358,84 359,83 360,82 361,83 362,82 363,81 364,80 365,79 366,78 367,79 368,80 369,81 370,82 371,81 372,82 373,81 374,80 375,79 376,78 377,77 378,76 379,77 380,76 381,77 382,76 383,75 384,76 385,77 386,76 387,77 388,76 389,75 390,74 391,73 392,72 393,71 394,70 395,71 396,70 397,69 398,70 399,71 400,200 " style="fill:rgb(105,19,137);stroke:rgb(5,0,37)"></polygon><polygon points="0,200 0,100 1,99 2,98 3,99 4,100 5,99 6,98 7,99 8,100 9,99 10,98 11,99 12,100 13,99 14,98 15,99 16,100 17,99 18,100 19,99 20,100 21,101 22,100 23,99 24,100 25,99 26,98 27,99 28,98 29,97 30,96 31,95 32,94 33,95 34,96 35,95 36,94 37,93 38,94 39,93 40,94 41,95 42,96 43,97 44,98 45,99 46,100 47,101 48,100 49,99 50,98 51,99 52,98 53,99 54,98 55,97 56,98 57,99 58,100 59,99 60,98 61,99 62,98 63,99 64,100 65,99 66,98 67,97 68,98 69,97 70,98 71,99 72,100 73,101 74,100 75,101 76,102 77,103 78,104 79,105 80,106 81,105 82,106 83,105 84,106 85,105 86,106 87,107 88,106 89,107 90,106 91,107 92,108 93,107 94,106 95,105 96,104 97,103 98,104 99,103 100,102 101,103 102,102 103,103 104,102 105,101 106,100 107,101 108,102 109,103 110,104 111,105 112,106 113,107 114,106 115,105 116,106 117,105 118,106 119,107 120,106 121,107 122,106 123,105 124,106 125,107 126,106 127,107 128,106 129,107 130,108 131,107 132,106 133,105 134,106 135,107 136,106 137,107 138,108 139,107 140,106 141,105 142,106 143,105 144,104 145,105 146,104 147,103 148,102 149,101 150,100 151,99 152,100 153,101 154,102 155,101 156,100 157,99 158,98 159,99 160,98 161,99 162,100 163,99 164,98 165,99 166,100 167,101 168,102 169,103 170,104 171,105 172,106 173,107 174,108 175,107 176,106 177,105 178,104 179,105 180,104 181,103 182,102 183,101 184,100 185,99 186,100 187,99 188,100 189,99 190,98 191,97 192,96 193,97 194,98 195,99 196,98 197,97 198,98 199,99 200,98 201,97 202,98 203,97 204,96 205,97 206,96 207,97 208,98 209,99 210,98 211,99 212,100 213,99 214,100 215,101 216,100 217,101 218,100 219,99 220,100 221,99 222,100 223,99 224,98 225,99 226,100 227,99 228,100 229,99 230,98 231,97 232,96 233,95 234,94 235,95 236,94 237,95 238,96 239,95 240,96 241,97 242,96 243,97 244,98 245,99 246,98 247,99 248,100 249,99 250,98 251,99 252,98 253,99 254,98 255,99 256,100 257,99 258,98 259,99 260,100 261,99 262,100 263,101 264,100 265,99 266,98 267,99 268,98 269,97 270,96 271,95 272,94 273,93 274,94 275,95 276,94 277,93 278,94 279,95 280,96 281,97 282,98 283,97 284,96 285,97 286,96 287,97 288,96 289,97 290,96 291,95 292,94 293,93 294,94 295,93 296,92 297,93 298,94 299,95 300,94 301,93 302,94 303,95 304,96 305,95 306,94 307,95 308,96 309,97 310,96 311,97 312,98 313,97 314,96 315,97 316,96 317,95 318,96 319,95 320,96 321,95 322,96 323,95 324,96 325,95 326,94 327,95 328,94 329,95 330,94 331,95 332,94 333,93 334,94 335,95 336,94 337,95 338,96 339,95 340,96 341,97 342,96 343,95 344,94 345,93 346,94 347,93 348,92 349,93 350,94 351,95 352,96 353,97 354,98 355,99 356,100 357,101 358,100 359,101 360,100 361,99 362,98 363,99 364,98 365,97 366,98 367,99 368,98 369,99 370,98 371,99 372,98 373,97 374,96 375,95 376,94 377,93 378,92 379,93 380,94 381,93 382,94 383,93 384,92 385,93 386,92 387,93 388,92 389,91 390,90 391,91 392,92 393,93 394,94 395,93 396,94 397,93 398,94 399,93 400,200 " style="fill:rgb(196,36,252);stroke:rgb(96,0,152)"></polygon><polygon points="0,200 0,100 1,99 2,100 3,101 4,100 5,99 6,100 7,99 8,98 9,99 10,98 11,97 12,96 13,95 14,94 15,93 16,94 17,93 18,94 19,93 20,94 21,95 22,96 23,95 24,96 25,97 26,98 27,97 28,98 29,97 30,96 31,95 32,96 33,97 34,98 35,97 36,98 37,97 38,98 39,99 40,100 41,99 42,98 43,97 44,96 45,95 46,94 47,95 48,94 49,95 50,96 51,97 52,96 53,97 54,96 55,97 56,96 57,95 58,96 59,95 60,94 61,93 62,94 63,93 64,94 65,95 66,94 67,95 68,94 69,93 70,94 71,93 72,94 73,93 74,92 75,93 76,94 77,93 78,94 79,95 80,94 81,93 82,92 83,93 84,92 85,91 86,92 87,93 88,94 89,95 90,96 91,95 92,96 93,97 94,98 95,99 96,98 97,97 98,96 99,97 100,98 101,99 102,98 103,97 104,96 105,97 106,96 107,97 108,98 109,99 110,98 111,97 112,96 113,97 114,98 115,97 116,96 117,95 118,96 119,95 120,94 121,93 122,92 123,93 124,94 125,95 126,94 127,93 128,94 129,95 130,94 131,95 132,94 133,93 134,94 135,93 136,92 137,93 138,94 139,93 140,92 141,91 142,90 143,91 144,90 145,89 146,88 147,87 148,88 149,89 150,90 151,89 152,88 153,89 154,88 155,87 156,88 157,87 158,86 159,87 160,86 161,87 162,86 163,87 164,88 165,89 166,88 167,87 168,88 169,87 170,88 171,89 172,90 173,91 174,92 175,91 176,90 177,89 178,90 179,91 180,92 181,91 182,92 183,93 184,92 185,93 186,92 187,93 188,94 189,95 190,96 191,95 192,94 193,95 194,96 195,97 196,98 197,97 198,98 199,97 200,96 201,95 202,94 203,95 204,96 205,95 206,96 207,97 208,98 209,97 210,98 211,99 212,98 213,99 214,98 215,99 216,98 217,99 218,98 219,99 220,98 221,99 222,98 223,97 224,98 225,99 226,100 227,99 228,100 229,101 230,102 231,103 232,104 233,103 234,102 235,101 236,100 237,99 238,100 239,101 240,102 241,101 242,100 243,99 244,100 245,101 246,100 247,99 248,98 249,99 250,98 251,99 252,98 253,97 254,98 255,99 256,100 257,101 258,100 259,101 260,102 261,103 262,102 263,101 264,102 265,101 266,102 267,101 268,100 269,101 270,102 271,103 272,104 273,103 274,104 275,105 276,106 277,107 278,108 279,109 280,110 281,111 282,112 283,113 284,114 285,113 286,112 287,113 288,114 289,115 290,116 291,115 292,114 293,115 294,114 295,115 296,116 297,117 298,118 299,117 300,116 301,117 302,116 303,117 304,116 305,117 306,118 307,117 308,116 309,117 310,116 311,115 312,114 313,113 314,112 315,113 316,112 317,113 318,112 319,111 320,110 321,109 322,110 323,111 324,112 325,113 326,114 327,113 328,114 329,115 330,116 331,117 332,116 333,115 334,116 335,117 336,118 337,119 338,118 339,119 340,118 341,119 342,118 343,117 344,118 345,119 346,120 347,119 348,118 349,119 350,118 351,117 352,118 353,119 354,120 355,121 356,120 357,119 358,120 359,119 360,120 361,119 362,120 363,121 364,122 365,121 366,120 367,119 368,120 369,119 370,118 371,119 372,118 373,117 374,118 375,119 376,120 377,119 378,118 379,117 380,116 381,115 382,114 383,115 384,114 385,113 386,114 387,113 388,114 389,113 390,112 391,111 392,110 393,109 394,108 395,107 396,106 397,107 398,108 399,109 400,200 " style="fill:rgb(228,39,103);stroke:rgb(128,0,3)"></polygon><polygon points="0,200 0,100 1,101 2,102 3,101 4,102 5,101 6,102 7,103 8,104 9,105 10,104 11,105 12,104 13,105 14,106 15,105 16,106 17,107 18,106 19,105 20,106 21,107 22,106 23,107 24,106 25,107 26,106 27,105 28,106 29,107 30,108 31,107 32,106 33,107 34,106 35,105 36,106 37,105 38,106 39,105 40,104 41,105 42,106 43,105 44,106 45,107 46,108 47,107 48,108 49,107 50,106 51,107 52,108 53,107 54,108 55,107 56,108 57,109 58,108 59,107 60,108 61,107 62,106 63,105 64,106 65,105 66,104 67,103 68,104 69,103 70,102 71,101 72,102 73,101 74,102 75,101 76,102 77,101 78,100 79,99 80,98 81,97 82,98 83,99 84,100 85,101 86,102 87,101 88,102 89,103 90,104 91,105 92,106 93,105 94,104 95,103 96,104 97,103 98,104 99,105 100,106 101,107 102,106 103,107 104,108 105,107 106,108 107,107 108,108 109,109 110,108 111,107 112,106 113,107 114,106 115,105 116,106 117,107 118,106 119,107 120,108 121,109 122,110 123,109 124,108 125,107 126,108 127,109 128,110 129,111 130,110 131,111 132,112 133,113 134,112 135,111 136,112 137,113 138,114 139,113 140,112 141,111 142,112 143,113 144,112 145,113 146,114 147,113 148,112 149,113 150,114 151,113 152,114 153,113 154,114 155,113 156,112 157,113 158,114 159,115 160,116 161,115 162,116 163,115 164,114 165,113 166,112 167,113 168,114 169,115 170,116 171,117 172,116 173,115 174,116 175,115 176,114 177,113 178,112 179,111 180,110 181,111 182,112 183,111 184,112 185,111 186,110 187,111 188,112 189,113 190,112 191,111 192,112 193,111 194,112 195,113 196,114 197,115 198,116 199,115 200,116 201,117 202,116 203,117 204,118 205,117 206,116 207,117 208,116 209,115 210,114 211,113 212,114 213,115 214,114 215,113 216,112 217,113 218,114 219,115 220,114 221,113 222,112 223,113 224,112 225,113 226,112 227,113 228,112 229,113 230,112 231,111 232,110 233,111 234,110 235,109 236,110 237,109 238,108 239,107 240,108 241,109 242,108 243,109 244,110 245,111 246,112 247,113 248,112 249,113 250,114 251,115 252,116 253,117 254,116 255,117 256,118 257,119 258,118 259,117 260,118 261,119 262,120 263,119 264,120 265,121 266,120 267,119 268,118 269,117 270,116 271,117 272,116 273,115 274,114 275,113 276,112 277,111 278,110 279,109 280,110 281,109 282,110 283,109 284,110 285,111 286,110 287,109 288,108 289,109 290,110 291,109 292,110 293,109 294,108 295,107 296,106 297,105 298,106 299,107 300,106 301,105 302,106 303,107 304,108 305,109 306,108 307,109 308,108 309,109 310,110 311,109 312,110 313,109 314,108 315,107 316,108 317,107 318,106 319,105 320,106 321,105 322,106 323,105 324,106 325,107 326,108 327,109 328,110 329,111 330,110 331,111 332,110 333,111 334,112 335,113 336,114 337,115 338,116 339,115 340,114 341,115 342,116 343,117 344,116 345,115 346,114 347,115 348,116 349,115 350,116 351,115 352,116 353,115 354,114 355,115 356,116 357,117 358,118 359,119 360,120 361,119 362,118 363,119 364,118 365,117 366,116 367,117 368,118 369,119 370,118 371,119 372,118 373,117 374,118 375,119 376,118 377,119 378,118 379,117 380,118 381,117 382,116 383,117 384,118 385,119 386,120 387,119 388,120 389,119 390,120 391,119 392,120 393,119 394,118 395,119 396,118 397,119 398,120 399,119 400,200 " style="fill:rgb(25,51,215);stroke:rgb(0,0,115)"></polygon><polygon points="0,200 0,100 1,101 2,102 3,101 4,102 5,101 6,102 7,101 8,102 9,103 10,104 11,105 12,104 13,103 14,102 15,101 16,102 17,103 18,104 19,105 20,106 21,107 22,108 23,109 24,110 25,109 26,110 27,111 28,112 29,111 30,112 31,111 32,110 33,111 34,112 35,111 36,110 37,109 38,110 39,109 40,110 41,111 42,110 43,111 44,110 45,109 46,108 47,109 48,108 49,107 50,108 51,107 52,108 53,109 54,108 55,107 56,106 57,105 58,104 59,105 60,106 61,105 62,104 63,105 64,104 65,103 66,102 67,103 68,104 69,105 70,106 71,105 72,104 73,103 74,104 75,103 76,102 77,103 78,104 79,103 80,104 81,105 82,106 83,105 84,104 85,103 86,104 87,105 88,104 89,103 90,104 91,103 92,102 93,101 94,100 95,99 96,100 97,101 98,102 99,101 100,100 101,99 102,100 103,101 104,102 105,101 106,102 107,101 108,102 109,103 110,104 111,103 112,104 113,103 114,102 115,103 116,102 117,103 118,102 119,103 120,104 121,103 122,102 123,103 124,104 125,103 126,104 127,105 128,104 129,103 130,102 131,103 132,102 133,103 134,104 135,103 136,104 137,105 138,104 139,103 140,102 141,101 142,102 143,103 144,104 145,105 146,106 147,105 148,106 149,105 150,104 151,103 152,104 153,103 154,102 155,101 156,100 157,99 158,98 159,99 160,100 161,101 162,102 163,101 164,100 165,101 166,100 167,99 168,98 169,99 170,98 171,99 172,98 173,97 174,98 175,99 176,100 177,101 178,102 179,101 180,100 181,99 182,98 183,97 184,96 185,97 186,96 187,95 188,94 189,95 190,96 191,97 192,96 193,97 194,98 195,97 196,96 197,95 198,96 199,95 200,94 201,93 202,92 203,93 204,94 205,95 206,96 207,97 208,98 209,97 210,96 211,97 212,98 213,97 214,98 215,97 216,98 217,97 218,96 219,97 220,96 221,95 222,96 223,97 224,98 225,99 226,98 227,99 228,98 229,97 230,96 231,97 232,96 233,97 234,98 235,97 236,98 237,97 238,96 239,95 240,94 241,93 242,94 243,95 244,94 245,93 246,92 247,93 248,92 249,93 250,94 251,95 252,94 253,95 254,94 255,93 256,94 257,95 258,96 259,97 260,98 261,97 262,98 263,99 264,100 265,99 266,100 267,99 268,100 269,101 270,102 271,101 272,102 273,103 274,102 275,101 276,100 277,99 278,98 279,97 280,96 281,95 282,94 283,93 284,92 285,91 286,92 287,93 288,94 289,95 290,96 291,95 292,94 293,95 294,96 295,95 296,96 297,97 298,96 299,97 300,96 301,97 302,96 303,97 304,96 305,97 306,98 307,97 308,96 309,97 310,98 311,99 312,100 313,99 314,100 315,99 316,100 317,99 318,100 319,99 320,98 321,97 322,98 323,97 324,98 325,99 326,100 327,101 328,100 329,101 330,102 331,103 332,102 333,101 334,102 335,101 336,100 337,99 338,100 339,101 340,100 341,101 342,100 343,99 344,100 345,99 346,98 347,99 348,100 349,99 350,100 351,101 352,100 353,101 354,100 355,101 356,100 357,99 358,100 359,99 360,100 361,101 362,102 363,101 364,100 365,99 366,100 367,99 368,100 369,101 370,102 371,101 372,102 373,101 374,102 375,103 376,102 377,101 378,102 379,101 380,100 381,99 382,98 383,97 384,98 385,97 386,98 387,97 388,96 389,95 390,96 391,95 392,96 393,97 394,96 395,97 396,96 397,97 398,98 399,99 400,200 " style="fill:rgb(207,31,175);stroke:rgb(107,0,75)"></polygon><polygon points="0,200 0,100 1,101 2,102 3,101 4,100 5,101 6,102 7,101 8,100 9,101 10,100 11,99 12,98 13,99 14,100 15,99 16,100 17,99 18,98 19,97 20,96 21,95 22,96 23,95 24,96 25,97 26,98 27,99 28,98 29,97 30,96 31,95 32,96 33,95 34,96 35,97 36,98 37,99 38,98 39,99 40,100 41,99 42,98 43,99 44,100 45,99 46,100 47,99 48,100 49,99 50,98 51,97 52,96 53,95 54,94 55,95 56,94 57,95 58,96 59,95 60,94 61,93 62,92 63,93 64,94 65,93 66,94 67,93 68,94 69,95 70,94 71,95 72,94 73,93 74,92 75,93 76,94 77,93 78,94 79,93 80,94 81,93 82,92 83,91 84,92 85,93 86,92 87,91 88,92 89,91 90,90 91,89 92,88 93,89 94,88 95,89 96,90 97,89 98,88 99,89 100,90 101,89 102,88 103,89 104,90 105,89 106,90 107,91 108,92 109,91 110,92 111,91 112,92 113,93 114,94 115,93 116,94 117,95 118,94 119,95 120,94 121,95 122,94 123,95 124,94 125,93 126,92 127,93 128,94 129,95 130,94 131,93 132,92 133,93 134,92 135,93 136,92 137,91 138,90 139,91 140,90 141,89 142,90 143,91 144,92 145,93 146,92 147,93 148,92 149,91 150,92 151,91 152,92 153,91 154,92 155,93 156,92 157,91 158,90 159,91 160,90 161,89 162,90 163,89 164,90 165,89 166,90 167,89 168,88 169,87 170,88 171,89 172,88 173,89 174,88 175,87 176,86 177,85 178,86 179,85 180,84 181,85 182,86 183,85 184,86 185,85 186,84 187,83 188,84 189,83 190,84 191,85 192,86 193,87 194,86 195,85 196,86 197,87 198,86 199,85 200,84 201,85 202,84 203,83 204,84 205,83 206,82 207,81 208,82 209,81 210,80 211,81 212,80 213,81 214,80 215,79 216,80 217,81 218,80 219,79 220,78 221,79 222,78 223,79 224,78 225,77 226,76 227,75 228,76 229,75 230,76 231,77 232,76 233,77 234,78 235,77 236,76 237,77 238,78 239,79 240,78 241,79 242,78 243,77 244,76 245,75 246,76 247,75 248,76 249,77 250,78 251,77 252,78 253,77 254,78 255,77 256,78 257,79 258,80 259,81 260,80 261,79 262,78 263,79 264,78 265,77 266,78 267,79 268,78 269,77 270,78 271,79 272,80 273,81 274,82 275,81 276,80 277,79 278,80 279,79 280,78 281,79 282,80 283,79 284,80 285,79 286,78 287,79 288,80 289,81 290,82 291,81 292,80 293,79 294,80 295,79 296,80 297,79 298,80 299,81 300,82 301,81 302,80 303,81 304,82 305,81 306,82 307,81 308,82 309,81 310,80 311,81 312,82 313,81 314,82 315,81 316,82 317,83 318,82 319,81 320,82 321,83 322,82 323,83 324,84 325,83 326,84 327,83 328,82 329,83 330,84 331,83 332,84 333,85 334,84 335,83 336,84 337,85 338,84 339,83 340,82 341,83 342,82 343,81 344,80 345,79 346,78 347,79 348,80 349,79 350,78 351,77 352,78 353,79 354,78 355,77 356,76 357,77 358,78 359,77 360,78 361,79 362,78 363,77 364,78 365,77 366,76 367,75 368,76 369,77 370,76 371,75 372,76 373,77 374,76 375,77 376,78 377,79 378,78 379,77 380,78 381,79 382,78 383,79 384,80 385,79 386,80 387,81 388,80 389,79 390,80 391,79 392,78 393,79 394,80 395,79 396,78 397,77 398,76 399,77 400,200 " style="fill:rgb(199,7,103);stroke:rgb(99,0,3)"></polygon><polygon points="0,200 0,100 1,99 2,98 3,97 4,96 5,97 6,98 7,97 8,96 9,97 10,98 11,99 12,98 13,97 14,98 15,99 16,100 17,99 18,100 19,99 20,100 21,99 22,98 23,97 24,96 25,97 26,96 27,95 28,94 29,93 30,92 31,93 32,94 33,95 34,94 35,93 36,92 37,91 38,90 39,89 40,88 41,89 42,90 43,89 44,90 45,91 46,92 47,93 48,92 49,91 50,90 51,89 52,88 53,89 54,90 55,91 56,92 57,91 58,92 59,93 60,92 61,91 62,92 63,91 64,92 65,91 66,90 67,89 68,90 69,89 70,88 71,89 72,88 73,87 74,86 75,87 76,88 77,87 78,88 79,89 80,90 81,91 82,92 83,91 84,92 85,93 86,92 87,91 88,90 89,91 90,92 91,91 92,92 93,93 94,92 95,93 96,92 97,93 98,92 99,91 100,92 101,93 102,92 103,93 104,92 105,93 106,94 107,95 108,94 109,93 110,92 111,93 112,94 113,95 114,94 115,93 116,92 117,91 118,92 119,91 120,90 121,89 122,90 123,89 124,90 125,91 126,90 127,91 128,90 129,89 130,88 131,89 132,88 133,89 134,88 135,87 136,88 137,89 138,88 139,87 140,86 141,85 142,86 143,85 144,86 145,85 146,86 147,87 148,88 149,87 150,86 151,85 152,86 153,85 154,86 155,85 156,84 157,85 158,84 159,83 160,82 161,81 162,82 163,81 164,80 165,81 166,82 167,81 168,82 169,81 170,82 171,81 172,80 173,79 174,78 175,79 176,80 177,79 178,80 179,79 180,78 181,79 182,78 183,79 184,80 185,81 186,82 187,83 188,84 189,85 190,84 191,85 192,86 193,85 194,84 195,85 196,86 197,85 198,86 199,85 200,84 201,83 202,82 203,81 204,80 205,81 206,82 207,81 208,80 209,79 210,80 211,81 212,80 213,81 214,82 215,81 216,82 217,83 218,82 219,81 220,80 221,79 222,78 223,77 224,78 225,77 226,78 227,77 228,78 229,77 230,76 231,75 232,76 233,75 234,74 235,73 236,72 237,73 238,72 239,73 240,74 241,73 242,74 243,73 244,72 245,71 246,72 247,71 248,72 249,71 250,72 251,71 252,70 253,71 254,72 255,71 256,70 257,69 258,68 259,69 260,70 261,71 262,72 263,73 264,74 265,75 266,74 267,75 268,76 269,75 270,74 271,75 272,74 273,75 274,74 275,73 276,74 277,75 278,74 279,75 280,74 281,73 282,72 283,73 284,72 285,71 286,70 287,71 288,72 289,73 290,72 291,73 292,72 293,71 294,72 295,71 296,72 297,71 298,70 299,69 300,68 301,69 302,68 303,69 304,70 305,71 306,72 307,71 308,72 309,71 310,70 311,69 312,70 313,71 314,72 315,71 316,70 317,71 318,72 319,73 320,74 321,73 322,72 323,73 324,72 325,71 326,70 327,71 328,70 329,69 330,70 331,71 332,72 333,73 334,72 335,73 336,72 337,71 338,70 339,69 340,68 341,67 342,68 343,69 344,68 345,67 346,68 347,69 348,68 349,69 350,68 351,69 352,68 353,69 354,68 355,69 356,68 357,69 358,68 359,67 360,68 361,67 362,68 363,67 364,68 365,69 366,70 367,71 368,70 369,71 370,72 371,71 372,72 373,73 374,72 375,71 376,72 377,73 378,72 379,71 380,72 381,73 382,72 383,71 384,70 385,69 386,68 387,67 388,66 389,67 390,68 391,69 392,70 393,71 394,70 395,69 396,70 397,71 398,72 399,71 400,200 " style="fill:rgb(226,53,92);stroke:rgb(126,0,0)"></polygon><polygon points="0,200 0,100 1,101 2,100 3,101 4,102 5,101 6,100 7,99 8,100 9,99 10,100 11,99 12,98 13,99 14,100 15,99 16,100 17,101 18,102 19,101 20,102 21,103 22,104 23,105 24,106 25,105 26,106 27,105 28,106 29,105 30,104 31,103 32,102 33,103 34,102 35,101 36,102 37,103 38,102 39,103 40,104 41,103 42,102 43,103 44,102 45,101 46,100 47,101 48,100 49,99 50,100 51,101 52,102 53,103 54,104 55,105 56,106 57,105 58,104 59,105 60,106 61,105 62,106 63,105 64,104 65,105 66,104 67,105 68,106 69,107 70,106 71,105 72,104 73,103 74,104 75,105 76,104 77,105 78,106 79,105 80,104 81,105 82,106 83,105 84,106 85,107 86,106 87,107 88,106 89,107 90,108 91,107 92,108 93,109 94,108 95,107 96,108 97,109 98,108 99,109 100,110 101,109 102,110 103,109 104,108 105,109 106,108 107,107 108,106 109,107 110,106 111,107 112,108 113,107 114,106 115,107 116,108 117,107 118,106 119,105 120,106 121,107 122,108 123,109 124,110 125,111 126,110 127,109 128,108 129,109 130,110 131,111 132,110 133,111 134,112 135,111 136,112 137,111 138,110 139,111 140,112 141,111 142,110 143,109 144,108 145,109 146,110 147,111 148,110 149,111 150,112 151,113 152,112 153,113 154,112 155,111 156,110 157,109 158,108 159,107 160,108 161,107 162,106 163,105 164,104 165,105 166,104 167,103 168,104 169,105 170,104 171,105 172,104 173,103 174,102 175,101 176,100 177,101 178,100 179,101 180,102 181,103 182,102 183,101 184,102 185,103 186,102 187,103 188,104 189,105 190,104 191,105 192,106 193,107 194,108 195,109 196,110 197,109 198,110 199,109 200,108 201,107 202,106 203,105 204,106 205,105 206,104 207,103 208,104 209,105 210,106 211,107 212,106 213,105 214,104 215,103 216,104 217,103 218,104 219,105 220,104 221,103 222,102 223,101 224,100 225,99 226,98 227,99 228,100 229,99 230,100 231,101 232,100 233,99 234,100 235,99 236,98 237,99 238,100 239,99 240,100 241,101 242,102 243,101 244,102 245,103 246,104 247,105 248,106 249,105 250,106 251,107 252,106 253,105 254,106 255,107 256,106 257,107 258,106 259,105 260,104 261,103 262,102 263,101 264,100 265,99 266,100 267,99 268,98 269,99 270,98 271,97 272,96 273,97 274,96 275,95 276,96 277,95 278,96 279,97 280,98 281,99 282,98 283,99 284,98 285,99 286,100 287,101 288,102 289,101 290,100 291,99 292,98 293,97 294,96 295,97 296,98 297,97 298,96 299,97 300,98 301,97 302,98 303,99 304,98 305,97 306,96 307,97 308,98 309,99 310,100 311,101 312,100 313,101 314,102 315,101 316,102 317,103 318,104 319,105 320,106 321,105 322,104 323,103 324,102 325,103 326,104 327,103 328,104 329,103 330,104 331,105 332,104 333,105 334,104 335,103 336,104 337,105 338,106 339,105 340,106 341,107 342,108 343,107 344,106 345,105 346,106 347,107 348,106 349,105 350,104 351,105 352,104 353,103 354,102 355,101 356,100 357,99 358,100 359,99 360,98 361,99 362,100 363,99 364,98 365,99 366,100 367,101 368,102 369,101 370,102 371,101 372,100 373,101 374,100 375,101 376,102 377,101 378,100 379,99 380,98 381,97 382,96 383,97 384,98 385,99 386,100 387,101 388,102 389,103 390,102 391,103 392,104 393,105 394,106 395,107 396,108 397,107 398,108 399,109 400,200 " style="fill:rgb(186,124,82);stroke:rgb(86,24,0)"></polygon><polygon points="0,200 0,100 1,101 2,100 3,101 4,100 5,99 6,100 7,101 8,102 9,103 10,102 11,101 12,102 13,101 14,100 15,99 16,98 17,99 18,100 19,99 20,100 21,101 22,102 23,103 24,102 25,103 26,102 27,101 28,102 29,103 30,102 31,103 32,102 33,101 34,102 35,101 36,100 37,99 38,98 39,97 40,96 41,95 42,94 43,93 44,92 45,93 46,94 47,95 48,94 49,93 50,92 51,91 52,90 53,91 54,90 55,89 56,88 57,89 58,88 59,87 60,88 61,87 62,86 63,85 64,84 65,85 66,84 67,83 68,82 69,81 70,80 71,81 72,82 73,81 74,82 75,83 76,84 77,83 78,82 79,81 80,80 81,81 82,80 83,79 84,78 85,79 86,78 87,77 88,78 89,77 90,76 91,77 92,78 93,77 94,76 95,75 96,76 97,77 98,76 99,75 100,76 101,77 102,76 103,77 104,78 105,79 106,80 107,81 108,80 109,79 110,78 111,77 112,76 113,77 114,78 115,77 116,78 117,77 118,76 119,77 120,78 121,77 122,78 123,77 124,76 125,75 126,76 127,77 128,78 129,77 130,76 131,75 132,74 133,73 134,72 135,71 136,72 137,73 138,72 139,71 140,70 141,69 142,68 143,69 144,68 145,69 146,68 147,67 148,66 149,67 150,68 151,69 152,68 153,69 154,70 155,69 156,68 157,67 158,66 159,67 160,66 161,65 162,64 163,63 164,64 165,65 166,66 167,65 168,66 169,67 170,66 171,65 172,64 173,63 174,62 175,63 176,64 177,65 178,64 179,65 180,64 181,63 182,64 183,65 184,66 185,67 186,66 187,67 188,68 189,67 190,68 191,69 192,68 193,69 194,70 195,71 196,72 197,71 198,70 199,71 200,72 201,71 202,70 203,71 204,70 205,71 206,70 207,69 208,70 209,71 210,72 211,73 212,72 213,71 214,70 215,69 216,70 217,69 218,70 219,71 220,70 221,69 222,68 223,67 224,66 225,67 226,68 227,67 228,68 229,67 230,68 231,69 232,70 233,69 234,68 235,67 236,66 237,67 238,66 239,65 240,66 241,65 242,66 243,67 244,68 245,69 246,70 247,69 248,68 249,67 250,68 251,69 252,68 253,69 254,68 255,69 256,68 257,67 258,66 259,67 260,68 261,67 262,66 263,65 264,64 265,65 266,66 267,67 268,66 269,65 270,66 271,67 272,66 273,67 274,68 275,67 276,66 277,67 278,68 279,69 280,68 281,67 282,66 283,65 284,64 285,63 286,62 287,63 288,62 289,63 290,62 291,63 292,64 293,63 294,64 295,65 296,66 297,65 298,64 299,65 300,66 301,67 302,66 303,65 304,66 305,65 306,64 307,65 308,64 309,65 310,64 311,63 312,62 313,61 314,60 315,59 316,58 317,59 318,58 319,59 320,60 321,59 322,60 323,59 324,60 325,59 326,60 327,59 328,58 329,57 330,58 331,59 332,58 333,59 334,58 335,59 336,60 337,59 338,58 339,59 340,60 341,59 342,58 343,57 344,58 345,59 346,60 347,59 348,58 349,59 350,60 351,59 352,58 353,57 354,58 355,57 356,56 357,57 358,58 359,59 360,58 361,59 362,58 363,59 364,58 365,57 366,58 367,59 368,60 369,61 370,62 371,63 372,64 373,65 374,64 375,65 376,66 377,67 378,68 379,67 380,66 381,67 382,68 383,67 384,68 385,67 386,68 387,67 388,68 389,67 390,68 391,69 392,68 393,69 394,68 395,69 396,70 397,69 398,70 399,71 400,200 " style="fill:rgb(8,170,57);stroke:rgb(0,70,0)"></polygon><polygon points="0,200 0,100 1,101 2,102 3,101 4,100 5,99 6,98 7,99 8,100 9,99 10,98 11,99 12,98 13,99 14,100 15,99 16,100 17,99 18,100 19,99 20,98 21,99 22,100 23,101 24,100 25,101 26,102 27,101 28,102 29,103 30,102 31,101 32,102 33,103 34,104 35,103 36,102 37,103 38,104 39,103 40,104 41,105 42,104 43,103 44,102 45,103 46,102 47,101 48,100 49,101 50,102 51,101 52,100 53,101 54,100 55,101 56,102 57,103 58,104 59,105 60,104 61,105 62,106 63,105 64,104 65,103 66,102 67,103 68,104 69,103 70,102 71,103 72,102 73,103 74,102 75,101 76,102 77,101 78,102 79,101 80,100 81,99 82,98 83,97 84,98 85,97 86,98 87,99 88,100 89,99 90,100 91,99 92,100 93,101 94,100 95,101 96,100 97,101 98,100 99,101 100,102 101,103 102,104 103,103 104,102 105,103 106,104 107,105 108,106 109,107 110,106 111,105 112,106 113,107 114,108 115,109 116,110 117,109 118,108 119,107 120,106 121,107 122,106 123,105 124,106 125,107 126,108 127,107 128,106 129,107 130,108 131,107 132,108 133,109 134,108 135,107 136,108 137,109 138,108 139,109 140,110 141,109 142,110 143,109 144,108 145,107 146,106 147,105 148,106 149,107 150,106 151,107 152,108 153,107 154,108 155,109 156,110 157,111 158,112 159,111 160,110 161,109 162,108 163,109 164,110 165,111 166,110 167,109 168,110 169,111 170,112 171,111 172,110 173,109 174,110 175,109 176,108 177,107 178,108 179,107 180,106 181,105 182,104 183,103 184,104 185,105 186,106 187,107 188,106 189,105 190,106 191,107 192,108 193,107 194,108 195,109 196,108 197,109 198,108 199,107 200,106 201,107 202,106 203,107 204,108 205,107 206,108 207,109 208,108 209,107 210,106 211,107 212,106 213,107 214,106 215,107 216,108 217,109 218,108 219,109 220,108 221,109 222,110 223,111 224,112 225,111 226,112 227,111 228,110 229,111 230,110 231,109 232,108 233,107 234,106 235,105 236,106 237,105 238,106 239,105 240,106 241,105 242,104 243,105 244,106 245,107 246,106 247,107 248,106 249,107 250,106 251,107 252,106 253,105 254,106 255,107 256,106 257,107 258,108 259,109 260,110 261,109 262,108 263,109 264,108 265,109 266,108 267,109 268,110 269,109 270,110 271,111 272,110 273,111 274,110 275,111 276,110 277,111 278,110 279,109 280,110 281,111 282,110 283,109 284,108 285,109 286,108 287,107 288,106 289,107 290,108 291,107 292,108 293,109 294,110 295,109 296,108 297,107 298,106 299,107 300,106 301,105 302,104 303,105 304,104 305,103 306,102 307,103 308,102 309,103 310,104 311,103 312,104 313,105 314,104 315,105 316,104 317,105 318,106 319,105 320,106 321,105 322,106 323,107 324,106 325,105 326,104 327,105 328,106 329,107 330,108 331,109 332,108 333,109 334,110 335,109 336,110 337,111 338,112 339,111 340,112 341,113 342,112 343,113 344,112 345,113 346,114 347,113 348,114 349,115 350,114 351,115 352,116 353,117 354,116 355,117 356,116 357,117 358,118 359,119 360,118 361,119 362,120 363,121 364,122 365,121 366,120 367,119 368,120 369,119 370,120 371,119 372,120 373,121 374,122 375,123 376,124 377,123 378,122 379,123 380,122 381,123 382,124 383,123 384,124 385,125 386,126 387,127 388,126 389,127 390,126 391,125 392,126 393,127 394,126 395,125 396,124 397,125 398,124 399,125 400,200 " style="fill:rgb(128,149,89);stroke:rgb(28,49,0)"></polygon></svg>